<?xml version="1.0" encoding="UTF-8"?>
<svg width="632px" height="20px" viewBox="0 0 632 20" version="1.1" xmlns="http://www.w3.org/2000/svg" xmlns:xlink="http://www.w3.org/1999/xlink">
    <!-- Generator: Sketch 43.2 (39069) - http://www.bohemiancoding.com/sketch -->
    <title>Page 1</title>
    <desc>Created with Sketch.</desc>
    <defs></defs>
    <g id="Page-1" stroke="none" stroke-width="1" fill="none" fill-rule="evenodd">
        <g id="About-Page" transform="translate(-404.000000, -614.000000)" stroke="#F66462" stroke-width="3.86599994">
            <path d="M1035.06282,631.959064 C1034.92292,631.953124 1034.70717,631.93321 1034.42188,631.874515 C1033.04877,631.590823 1030.07057,630.404349 1026.25245,625.550842 C1023.1382,621.592083 1019.9,616.216612 1015.54017,616 C1011.18006,616.216612 1007.94186,621.592083 1004.82762,625.550842 C1000.95865,630.468983 997.952144,631.621918 996.604039,631.885346 C996.345686,631.936005 996.148074,631.953474 996.017249,631.959064 L995.633568,631.959064 C995.493673,631.953124 995.277647,631.93321 994.992634,631.874515 C993.619244,631.590823 990.64132,630.404349 986.823202,625.550842 C983.708681,621.592083 980.470756,616.216612 976.110647,616 C971.750812,616.216612 968.512338,621.592083 965.398092,625.550842 C961.529127,630.468983 958.522894,631.621918 957.174515,631.885346 C956.916162,631.936005 956.71855,631.953474 956.588,631.959064 L956.255715,631.959064 C956.11582,631.953124 955.899793,631.93321 955.614506,631.874515 C954.241391,631.590823 951.263192,630.404349 947.445348,625.550842 C944.331102,621.592083 941.092902,616.216612 936.732793,616 C932.372684,616.216612 929.134759,621.592083 926.020513,625.550842 C922.151274,630.468983 919.144766,631.621918 917.796936,631.885346 C917.538309,631.936005 917.340972,631.953474 917.209872,631.959064 L916.826466,631.959064 C916.686571,631.953124 916.470544,631.93321 916.185532,631.874515 C914.811867,631.590823 911.834218,630.404349 908.015824,625.550842 C904.901578,621.592083 901.663653,616.216612 897.303269,616 C892.943435,616.216612 889.705235,621.592083 886.590989,625.550842 C882.722024,630.468983 879.715517,631.621918 878.367412,631.885346 C878.108785,631.936005 877.911448,631.953474 877.780623,631.959064 L877.448337,631.959064 C877.308442,631.953124 877.092416,631.93321 876.807404,631.874515 C875.434288,631.590823 872.456089,630.404349 868.638246,625.550842 C865.523725,621.592083 862.285525,616.216612 857.925691,616 C853.565582,616.216612 850.327382,621.592083 847.212861,625.550842 C843.343896,630.468983 840.337664,631.621918 838.989559,631.885346 C838.731206,631.936005 838.533594,631.953474 838.402769,631.959064 L838.019088,631.959064 C837.878918,631.953124 837.663167,631.93321 837.37788,631.874515 C836.004764,631.590823 833.02684,630.404349 829.208722,625.550842 C826.094476,621.592083 822.856276,616.216612 818.496167,616 C814.136058,616.216612 810.898132,621.592083 807.783612,625.550842 C803.914647,630.468983 800.90814,631.621918 799.56031,631.885346 C799.301682,631.936005 799.10407,631.953474 798.973245,631.959064 L798.641235,631.959064 C798.50134,631.953124 798.285313,631.93321 798.000301,631.874515 C796.627185,631.590823 793.648987,630.404349 789.830868,625.550842 C786.716347,621.592083 783.478422,616.216612 779.118588,616 C774.758204,616.216612 771.520004,621.592083 768.405758,625.550842 C764.536794,630.468983 761.530286,631.621918 760.182181,631.885346 C759.923829,631.936005 759.726492,631.953474 759.595392,631.959064 L759.211986,631.959064 C759.071816,631.953124 758.856064,631.93321 758.570777,631.874515 C757.197661,631.590823 754.219463,630.404349 750.401344,625.550842 C747.287098,621.592083 744.049173,616.216612 739.689064,616 C735.32868,616.216612 732.090755,621.592083 728.976509,625.550842 C725.107545,630.468983 722.101037,631.621918 720.752932,631.885346 C720.49458,631.936005 720.296968,631.953474 720.166143,631.959064 L719.833857,631.959064 C719.693962,631.953124 719.478211,631.93321 719.192924,631.874515 C717.819808,631.590823 714.841609,630.404349 711.023491,625.550842 C707.909245,621.592083 704.67132,616.216612 700.311211,616 C695.950827,616.216612 692.712902,621.592083 689.598656,625.550842 C685.729691,630.468983 682.723184,631.621918 681.375079,631.885346 C681.116726,631.936005 680.919114,631.953474 680.788289,631.959064 L680.404608,631.959064 C680.264713,631.953124 680.048687,631.93321 679.763674,631.874515 C678.390559,631.590823 675.41236,630.404349 671.594242,625.550842 C668.479996,621.592083 665.241796,616.216612 660.881687,616 C656.521578,616.216612 653.283653,621.592083 650.169132,625.550842 C646.300167,630.468983 643.29366,631.621918 641.94583,631.885346 C641.687477,631.936005 641.489865,631.953474 641.358765,631.959064 L641.026755,631.959064 C640.88686,631.953124 640.670833,631.93321 640.385821,631.874515 C639.012706,631.590823 636.034507,630.404349 632.216388,625.550842 C629.102142,621.592083 625.863942,616.216612 621.504108,616 C617.143724,616.216612 613.905799,621.592083 610.791278,625.550842 C606.922314,630.468983 603.915806,631.621918 602.567976,631.885346 C602.309349,631.936005 602.112012,631.953474 601.980912,631.959064 L601.597506,631.959064 C601.457611,631.953124 601.241584,631.93321 600.956297,631.874515 C599.583182,631.590823 596.604983,630.404349 592.787139,625.550842 C589.672618,621.592083 586.434693,616.216612 582.074584,616 C577.714475,616.216612 574.476275,621.592083 571.362029,625.550842 C567.493065,630.468983 564.486557,631.621918 563.138452,631.885346 C562.8801,631.936005 562.682488,631.953474 562.551663,631.959064 L562.219377,631.959064 C562.079757,631.953124 561.863731,631.93321 561.578444,631.874515 C560.205328,631.590823 557.22713,630.404349 553.409286,625.550842 C550.294765,621.592083 547.056565,616.216612 542.696731,616 C538.336622,616.216612 535.098422,621.592083 531.984176,625.550842 C528.115211,630.468983 525.108704,631.621918 523.760599,631.885346 C523.502247,631.936005 523.304634,631.953474 523.173809,631.959064 L522.790128,631.959064 C522.650233,631.953124 522.434207,631.93321 522.149195,631.874515 C520.775804,631.590823 517.79788,630.404349 513.979762,625.550842 C510.865516,621.592083 507.627316,616.216612 503.267207,616 C498.907098,616.216612 495.669173,621.592083 492.554927,625.550842 C488.685687,630.468983 485.67918,631.621918 484.33135,631.885346 C484.072723,631.936005 483.875111,631.953474 483.744285,631.959064 L483.412275,631.959064 C483.27238,631.953124 483.056353,631.93321 482.771341,631.874515 C481.397951,631.590823 478.420027,630.404349 474.601908,625.550842 C471.487662,621.592083 468.249462,616.216612 463.889353,616 C459.529519,616.216612 456.291319,621.592083 453.177073,625.550842 C449.307834,630.468983 446.301601,631.621918 444.953496,631.885346 C444.694869,631.936005 444.497532,631.953474 444.366707,631.959064 L443.983026,631.959064 C443.843131,631.953124 443.627104,631.93321 443.342092,631.874515 C441.968702,631.590823 438.990778,630.404349 435.172384,625.550842 C432.058139,621.592083 428.820213,616.216612 424.460104,616 C420.099995,616.216612 416.861795,621.592083 413.747549,625.550842 C409.878585,630.468983 406.872077,631.621918 405.523973,631.885346 C405.26562,631.936005 405.068008,631.953474 404.937183,631.959064" id="Page-1"></path>
        </g>
    </g>
</svg>